<svg xmlns="http://www.w3.org/2000/svg" style="display:none">

<!-- 🛒 MAKRO — สีแดงเข้ม, อักษร M ปลายแหลม -->
<symbol id="icon-makro" viewBox="0 0 24 24">
  <rect width="24" height="24" fill="none"/>
  <circle cx="12" cy="12" r="10" fill="#C41E3A" opacity="0.9"/>
  <path d="M8 16 L12 8 L16 16" stroke="white" stroke-width="2" fill="none" stroke-linecap="round" stroke-linejoin="round"/>
</symbol>

<!-- 🏬 TESCO LOTUS — สีน้ำเงิน, ร้านสูง -->
<symbol id="icon-tesco" viewBox="0 0 24 24">
  <rect width="24" height="24" fill="none"/>
  <rect x="4" y="6" width="16" height="14" fill="#1E3A8A" rx="1"/>
  <rect x="6" y="8" width="3" height="10" fill="white" opacity="0.8"/>
  <rect x="11" y="8" width="2" height="10" fill="white" opacity="0.8"/>
  <rect x="15" y="8" width="3" height="10" fill="white" opacity="0.8"/>
</symbol>

<!-- 🟥 BIG C — สีแดง, อักษร C โค้ง -->
<symbol id="icon-bigc" viewBox="0 0 24 24">
  <rect width="24" height="24" fill="none"/>
  <circle cx="12" cy="12" r="9" fill="none" stroke="#EF4444" stroke-width="3"/>
  <path d="M15 9 A 4 4 0 0 0 9 12 A 4 4 0 0 0 15 15" fill="none" stroke="#EF4444" stroke-width="2.5" stroke-linecap="round"/>
</symbol>

<!-- 🟠 7-ELEVEN — สีส้มดำ, สี่เหลี่ยม -->
<symbol id="icon-7eleven" viewBox="0 0 24 24">
  <rect width="24" height="24" fill="none"/>
  <rect x="3" y="4" width="18" height="16" fill="#FF6600" rx="2"/>
  <circle cx="8.5" cy="12" r="2.5" fill="white"/>
  <circle cx="15.5" cy="12" r="2.5" fill="white"/>
</symbol>

<!-- 💛 FAMILY MART — สีเหลืองแดง, ใจน่ารัก -->
<symbol id="icon-familymart" viewBox="0 0 24 24">
  <rect width="24" height="24" fill="none"/>
  <path d="M12 4 C14 4 16 6 16 8 C16 12 12 16 12 16 C12 16 8 12 8 8 C8 6 10 4 12 4" fill="#F59E0B"/>
  <circle cx="10.5" cy="9" r="1.2" fill="white"/>
  <circle cx="13.5" cy="9" r="1.2" fill="white"/>
</symbol>

<!-- 💙 LAWSON — สีน้ำเงิน, ถุงเก้าความสุข -->
<symbol id="icon-lawson" viewBox="0 0 24 24">
  <rect width="24" height="24" fill="none"/>
  <rect x="5" y="7" width="14" height="11" fill="#2563EB" rx="1"/>
  <path d="M9 10 L9 16" stroke="white" stroke-width="1.5" opacity="0.7"/>
  <path d="M12 10 L12 16" stroke="white" stroke-width="1.5" opacity="0.7"/>
  <path d="M15 10 L15 16" stroke="white" stroke-width="1.5" opacity="0.7"/>
</symbol>

<!-- 🏪 ร้านสะดวก (Generic Convenience) — สีม่วง, หน้าร้านเปิด -->
<symbol id="icon-convenience" viewBox="0 0 24 24">
  <rect width="24" height="24" fill="none"/>
  <rect x="4" y="8" width="16" height="10" fill="#9333EA" rx="1"/>
  <path d="M6 8 L6 18" stroke="white" stroke-width="1" opacity="0.6"/>
  <path d="M10 8 L10 18" stroke="white" stroke-width="1" opacity="0.6"/>
  <path d="M14 8 L14 18" stroke="white" stroke-width="1" opacity="0.6"/>
  <path d="M18 8 L18 18" stroke="white" stroke-width="1" opacity="0.6"/>
  <path d="M8 6 L16 6 L16 8 L8 8 Z" fill="#9333EA" opacity="0.7"/>
</symbol>

<!-- 🏠 ตลาด — หลังคาสามเหลี่ยม, กระติด -->
<symbol id="icon-market" viewBox="0 0 24 24">
  <rect width="24" height="24" fill="none"/>
  <path d="M4 14 L12 6 L20 14" stroke="#D97706" stroke-width="2" fill="none" stroke-linecap="round"/>
  <rect x="4" y="14" width="16" height="8" fill="#D97706" opacity="0.8"/>
  <line x1="8" y1="14" x2="8" y2="22" stroke="white" stroke-width="1" opacity="0.5"/>
  <line x1="12" y1="14" x2="12" y2="22" stroke="white" stroke-width="1" opacity="0.5"/>
  <line x1="16" y1="14" x2="16" y2="22" stroke="white" stroke-width="1" opacity="0.5"/>
</symbol>

<!-- 🛍️ ร้านนวม/ห้างสรรพสินค้า — สีชมพู, ถุง -->
<symbol id="icon-mall" viewBox="0 0 24 24">
  <rect width="24" height="24" fill="none"/>
  <path d="M7 18 L8 8 L16 8 L17 18 Z" fill="#EC4899" opacity="0.8"/>
  <path d="M9 8 L9 5 M15 8 L15 5" stroke="#EC4899" stroke-width="1.5" stroke-linecap="round"/>
  <path d="M8 8 L16 8" stroke="#EC4899" stroke-width="1.5"/>
  <circle cx="11" cy="13" r="0.8" fill="white" opacity="0.6"/>
  <circle cx="13" cy="13" r="0.8" fill="white" opacity="0.6"/>
</symbol>

<!-- 🍕 ร้านอาหาร/ร้านเสื้อหมี — ส้อมช้อนไม้ไฟ -->
<symbol id="icon-restaurant" viewBox="0 0 24 24">
  <rect width="24" height="24" fill="none"/>
  <!-- Spoon -->
  <path d="M6 8 L6 18" stroke="#F97316" stroke-width="2" stroke-linecap="round"/>
  <circle cx="6" cy="6" r="2.5" fill="#F97316"/>
  <!-- Fork -->
  <path d="M12 8 L12 18" stroke="#F97316" stroke-width="1.5" stroke-linecap="round"/>
  <path d="M10 7 L14 7" stroke="#F97316" stroke-width="1.5" stroke-linecap="round"/>
  <!-- Knife -->
  <path d="M18 6 L18 18" stroke="#F97316" stroke-width="2" stroke-linecap="round"/>
  <circle cx="18" cy="5" r="1.5" fill="#F97316"/>
</symbol>

<!-- 💊 ร้านยา/药房 — ครอสแดง -->
<symbol id="icon-pharmacy" viewBox="0 0 24 24">
  <rect width="24" height="24" fill="none"/>
  <rect x="5" y="5" width="14" height="14" fill="#10B981" rx="2"/>
  <path d="M12 9 L12 15" stroke="white" stroke-width="2.5" stroke-linecap="round"/>
  <path d="M9 12 L15 12" stroke="white" stroke-width="2.5" stroke-linecap="round"/>
</symbol>

<!-- 🏦 ธนาคาร — อาคารเหลี่ยม, คอลัมน์ -->
<symbol id="icon-bank" viewBox="0 0 24 24">
  <rect width="24" height="24" fill="none"/>
  <path d="M4 18 L20 18 L18 10 L6 10 Z" fill="#1E40AF" opacity="0.8"/>
  <path d="M6 10 L12 5 L18 10" stroke="#1E40AF" stroke-width="2" fill="none"/>
  <rect x="7" y="11" width="2" height="7" fill="white" opacity="0.6"/>
  <rect x="11" y="11" width="2" height="7" fill="white" opacity="0.6"/>
  <rect x="15" y="11" width="2" height="7" fill="white" opacity="0.6"/>
</symbol>

<!-- 🎓 โรงเรียน — สีข้าว, ธง -->
<symbol id="icon-school" viewBox="0 0 24 24">
  <rect width="24" height="24" fill="none"/>
  <path d="M8 18 L16 18 L15 14 L9 14 Z" fill="#6366F1" opacity="0.8"/>
  <path d="M9 14 L12 7 L15 14" stroke="#6366F1" stroke-width="1.5" fill="none"/>
  <rect x="11" y="15" width="2" height="3" fill="#6366F1" opacity="0.6"/>
  <circle cx="11" cy="10" r="0.8" fill="white" opacity="0.7"/>
</symbol>

<!-- 🏨 โรงแรม/ที่พัก — ตึกสูง, อิสระ -->
<symbol id="icon-hotel" viewBox="0 0 24 24">
  <rect width="24" height="24" fill="none"/>
  <rect x="4" y="6" width="16" height="12" fill="#8B5CF6" rx="1"/>
  <rect x="6" y="8" width="2" height="2" fill="white" opacity="0.7"/>
  <rect x="9" y="8" width="2" height="2" fill="white" opacity="0.7"/>
  <rect x="12" y="8" width="2" height="2" fill="white" opacity="0.7"/>
  <rect x="15" y="8" width="2" height="2" fill="white" opacity="0.7"/>
  <rect x="6" y="11" width="2" height="2" fill="white" opacity="0.7"/>
  <rect x="9" y="11" width="2" height="2" fill="white" opacity="0.7"/>
  <rect x="12" y="11" width="2" height="2" fill="white" opacity="0.7"/>
  <rect x="15" y="11" width="2" height="2" fill="white" opacity="0.7"/>
</symbol>

<!-- ☕ คาเฟ่/สตาร์บัคส์ — ถ้วยกาแฟ -->
<symbol id="icon-cafe" viewBox="0 0 24 24">
  <rect width="24" height="24" fill="none"/>
  <path d="M5 8 L6 16 Q6 18 8 18 L14 18 Q16 18 16 16 L17 8 Z" fill="#92400E" opacity="0.8"/>
  <path d="M17 10 L19 9 Q20 9 20 11 L20 15 Q20 16 19 16 L17 15" fill="none" stroke="#92400E" stroke-width="1.5"/>
  <circle cx="9" cy="12" r="1.5" fill="#FBBF24" opacity="0.6"/>
  <circle cx="12" cy="12" r="1.5" fill="#FBBF24" opacity="0.6"/>
</symbol>

<!-- 🥤 ร้านน้ำ/ชาไข่มุก — ถ้วยสไตล์ไทย -->
<symbol id="icon-drinks" viewBox="0 0 24 24">
  <rect width="24" height="24" fill="none"/>
  <path d="M7 7 L8 17 Q8 18 9 18 L15 18 Q16 18 16 17 L17 7 Z" fill="#06B6D4" opacity="0.8"/>
  <line x1="7" y1="7" x2="17" y2="7" stroke="#06B6D4" stroke-width="1"/>
  <circle cx="10" cy="11" r="0.6" fill="white" opacity="0.5"/>
  <circle cx="12" cy="12" r="0.6" fill="white" opacity="0.5"/>
  <circle cx="14" cy="11" r="0.6" fill="white" opacity="0.5"/>
  <path d="M17.5 9 Q19 8 19 10 L19 16 Q19 17 18 17" fill="none" stroke="#06B6D4" stroke-width="1"/>
</symbol>

<!-- 🚗 ปั๊มน้ำมัน/การบริการรถ — ถังน้ำมัน -->
<symbol id="icon-gasstation" viewBox="0 0 24 24">
  <rect width="24" height="24" fill="none"/>
  <rect x="5" y="6" width="6" height="10" fill="#FBBF24" rx="1"/>
  <circle cx="8" cy="5" r="1.5" fill="#FBBF24"/>
  <rect x="13" y="10" width="6" height="6" fill="#64748B" rx="1"/>
  <circle cx="16" cy="9" r="1" fill="#64748B"/>
</symbol>

</svg>
