<svg xmlns="http://www.w3.org/2000/svg" style="display:none">

<!-- 🏠 ค่าบ้าน — House -->
<symbol id="icon-cat-house" viewBox="0 0 24 24">
  <rect width="24" height="24" fill="none"/>
  <path d="M4 12 L12 5 L20 12 L20 19 Q20 20 19 20 L5 20 Q4 20 4 19 Z" stroke="#DC2626" stroke-width="2" fill="none" stroke-linejoin="round"/>
  <rect x="9" y="12" width="6" height="8" fill="none" stroke="#DC2626" stroke-width="1.5"/>
</symbol>

<!-- 💧 ค่าน้ำ — Water Droplet -->
<symbol id="icon-cat-water" viewBox="0 0 24 24">
  <rect width="24" height="24" fill="none"/>
  <path d="M12 5 Q12 5 12 9 Q10 13 8 16 Q6 18 8 20 Q10 22 12 22 Q14 22 16 20 Q18 18 16 16 Q14 13 12 9 Z" fill="#3B82F6" opacity="0.8"/>
</symbol>

<!-- ⚡ ค่าไฟ — Lightning -->
<symbol id="icon-cat-electricity" viewBox="0 0 24 24">
  <rect width="24" height="24" fill="none"/>
  <path d="M13 3 L7 13 L12 13 L11 21 L17 11 L12 11 Z" fill="#FBBF24" opacity="0.9"/>
  <path d="M13 3 L7 13 L12 13 L11 21 L17 11 L12 11 Z" stroke="#FCD34D" stroke-width="1" fill="none"/>
</symbol>

<!-- 📡 ค่าเน็ต — WiFi/Signal -->
<symbol id="icon-cat-internet" viewBox="0 0 24 24">
  <rect width="24" height="24" fill="none"/>
  <path d="M12 20 L12 20" stroke="#8B5CF6" stroke-width="2" stroke-linecap="round"/>
  <path d="M7 16 Q9 14 12 14 Q15 14 17 16" stroke="#8B5CF6" stroke-width="2" fill="none" stroke-linecap="round"/>
  <path d="M4 12 Q8 8 12 8 Q16 8 20 12" stroke="#8B5CF6" stroke-width="2" fill="none" stroke-linecap="round"/>
  <path d="M2 8 Q7 3 12 3 Q17 3 22 8" stroke="#8B5CF6" stroke-width="2" fill="none" stroke-linecap="round"/>
</symbol>

<!-- 📞 ค่าโทรศัพท์ — Phone -->
<symbol id="icon-cat-phone" viewBox="0 0 24 24">
  <rect width="24" height="24" fill="none"/>
  <rect x="6" y="3" width="12" height="18" rx="2" fill="none" stroke="#06B6D4" stroke-width="2"/>
  <circle cx="12" cy="19.5" r="0.8" fill="#06B6D4"/>
</symbol>

<!-- 🏢 ค่าส่วนกลาง — Building/Condo -->
<symbol id="icon-cat-commonarea" viewBox="0 0 24 24">
  <rect width="24" height="24" fill="none"/>
  <rect x="5" y="4" width="14" height="14" fill="none" stroke="#6366F1" stroke-width="2" rx="1"/>
  <line x1="8" y1="4" x2="8" y2="18" stroke="#6366F1" stroke-width="1" opacity="0.6"/>
  <line x1="12" y1="4" x2="12" y2="18" stroke="#6366F1" stroke-width="1" opacity="0.6"/>
  <line x1="16" y1="4" x2="16" y2="18" stroke="#6366F1" stroke-width="1" opacity="0.6"/>
  <line x1="5" y1="9" x2="19" y2="9" stroke="#6366F1" stroke-width="1" opacity="0.6"/>
</symbol>

<!-- 👨‍👩‍👧 ส่งให้พ่อแม่ — Family -->
<symbol id="icon-cat-family" viewBox="0 0 24 24">
  <rect width="24" height="24" fill="none"/>
  <circle cx="8" cy="8" r="2" fill="#EC4899"/>
  <circle cx="16" cy="8" r="2" fill="#EC4899"/>
  <circle cx="12" cy="13" r="2" fill="#EC4899"/>
  <path d="M8 10 L8 15 M16 10 L16 15 M12 15 L12 20" stroke="#EC4899" stroke-width="1.5" stroke-linecap="round"/>
</symbol>

<!-- 🍽️ ค่าอาหารลูก — Bowl/Food -->
<symbol id="icon-cat-food" viewBox="0 0 24 24">
  <rect width="24" height="24" fill="none"/>
  <path d="M5 10 L5 15 Q5 18 9 18 L15 18 Q19 18 19 15 L19 10" stroke="#F97316" stroke-width="2" fill="none" stroke-linecap="round"/>
  <ellipse cx="12" cy="10" rx="7" ry="2" fill="none" stroke="#F97316" stroke-width="2"/>
  <path d="M9 12 L9 15" stroke="#F97316" stroke-width="1" opacity="0.7"/>
  <path d="M12 12 L12 15" stroke="#F97316" stroke-width="1" opacity="0.7"/>
  <path d="M15 12 L15 15" stroke="#F97316" stroke-width="1" opacity="0.7"/>
</symbol>

<!-- 🧺 ค่าของใช้ครัวเรือน — Household -->
<symbol id="icon-cat-household" viewBox="0 0 24 24">
  <rect width="24" height="24" fill="none"/>
  <rect x="4" y="6" width="6" height="12" fill="none" stroke="#10B981" stroke-width="1.5" rx="1"/>
  <circle cx="7" cy="12" r="1" fill="#10B981" opacity="0.6"/>
  <path d="M14 7 L14 18" stroke="#10B981" stroke-width="2" stroke-linecap="round"/>
  <path d="M12 8 L16 8" stroke="#10B981" stroke-width="1.5"/>
  <path d="M12 14 L16 14" stroke="#10B981" stroke-width="1.5"/>
</symbol>

<!-- 👕 ค่าของใช้ส่วนตัว — Personal/Clothing -->
<symbol id="icon-cat-personal" viewBox="0 0 24 24">
  <rect width="24" height="24" fill="none"/>
  <path d="M9 6 L8 10 L9 13 L15 13 L16 10 L15 6 Z" fill="none" stroke="#A855F7" stroke-width="2" stroke-linejoin="round"/>
  <path d="M8 13 L7 20 M16 13 L17 20" stroke="#A855F7" stroke-width="1.5" stroke-linecap="round"/>
  <circle cx="12" cy="5" r="1.5" fill="#A855F7" opacity="0.6"/>
</symbol>

<!-- 🎁 อื่นๆ — Gift/Other -->
<symbol id="icon-cat-other" viewBox="0 0 24 24">
  <rect width="24" height="24" fill="none"/>
  <rect x="5" y="8" width="14" height="10" fill="none" stroke="#64748B" stroke-width="2" rx="1"/>
  <path d="M5 8 L12 5 L19 8" stroke="#64748B" stroke-width="2" fill="none" stroke-linejoin="round"/>
  <line x1="12" y1="5" x2="12" y2="18" stroke="#64748B" stroke-width="1.5"/>
  <line x1="5" y1="10" x2="19" y2="10" stroke="#64748B" stroke-width="1" opacity="0.6"/>
</symbol>

<!-- 💰 เงินเดือน — Wallet/Money -->
<symbol id="icon-cat-salary" viewBox="0 0 24 24">
  <rect width="24" height="24" fill="none"/>
  <rect x="4" y="7" width="16" height="10" fill="none" stroke="#22C55E" stroke-width="2" rx="1"/>
  <circle cx="12" cy="12" r="2" fill="none" stroke="#22C55E" stroke-width="1.5"/>
  <text x="12" y="13.5" font-size="6" fill="#22C55E" text-anchor="middle" font-weight="bold">฿</text>
</symbol>

<!-- 🎊 โบนัส/ผลพิเศษ — Bonus/Star -->
<symbol id="icon-cat-bonus" viewBox="0 0 24 24">
  <rect width="24" height="24" fill="none"/>
  <path d="M12 4 L14.5 11 L22 11.5 L17 16.5 L19 24 L12 20.5 L5 24 L7 16.5 L2 11.5 L9.5 11 Z" fill="#FBBF24" opacity="0.8"/>
</symbol>

<!-- 📊 ผ่อน/ผลตอบแทน — Chart/Return -->
<symbol id="icon-cat-return" viewBox="0 0 24 24">
  <rect width="24" height="24" fill="none"/>
  <path d="M4 14 L8 10 L12 12 L16 8 L20 12" stroke="#0EA5E9" stroke-width="2" fill="none" stroke-linecap="round" stroke-linejoin="round"/>
  <path d="M16 8 L20 8 L20 12" stroke="#0EA5E9" stroke-width="2" fill="none" stroke-linecap="round" stroke-linejoin="round"/>
  <line x1="4" y1="18" x2="20" y2="18" stroke="#0EA5E9" stroke-width="1" opacity="0.5"/>
</symbol>

<!-- 🎯 รายได้อื่นๆ — Target/Other Income -->
<symbol id="icon-cat-otherincome" viewBox="0 0 24 24">
  <rect width="24" height="24" fill="none"/>
  <circle cx="12" cy="12" r="8" fill="none" stroke="#10B981" stroke-width="2"/>
  <circle cx="12" cy="12" r="5" fill="none" stroke="#10B981" stroke-width="1"/>
  <circle cx="12" cy="12" r="2" fill="#10B981"/>
</symbol>

<!-- ✅ Paid — Checkmark (สำหรับสถานะ) -->
<symbol id="icon-status-paid" viewBox="0 0 24 24">
  <rect width="24" height="24" fill="none"/>
  <circle cx="12" cy="12" r="10" fill="#22C55E" opacity="0.2"/>
  <path d="M8 12 L11 15 L16 9" stroke="#22C55E" stroke-width="2.5" fill="none" stroke-linecap="round" stroke-linejoin="round"/>
</symbol>

<!-- ⏳ Pending — Clock (สำหรับสถานะ) -->
<symbol id="icon-status-pending" viewBox="0 0 24 24">
  <rect width="24" height="24" fill="none"/>
  <circle cx="12" cy="12" r="10" fill="#FBBF24" opacity="0.2" stroke="#FBBF24" stroke-width="2"/>
  <line x1="12" y1="7" x2="12" y2="12" stroke="#FBBF24" stroke-width="2" stroke-linecap="round"/>
  <line x1="12" y1="12" x2="15" y2="12" stroke="#FBBF24" stroke-width="2" stroke-linecap="round"/>
</symbol>

<!-- 🔄 Transfer — Arrows (สำหรับสถานะ) -->
<symbol id="icon-status-transfer" viewBox="0 0 24 24">
  <rect width="24" height="24" fill="none"/>
  <path d="M6 9 L10 5 L10 9 Z" fill="#0EA5E9"/>
  <path d="M18 15 L14 19 L14 15 Z" fill="#0EA5E9"/>
  <line x1="10" y1="8" x2="14" y2="16" stroke="#0EA5E9" stroke-width="2" stroke-linecap="round"/>
</symbol>

</svg>
